<svg width="140" height="34" viewBox="0 0 140 34" fill="none" xmlns="http://www.w3.org/2000/svg">
<path fill-rule="evenodd" clip-rule="evenodd" d="M6.08997 6.80342C5.47011 5.86431 4.13825 5.73193 3.45498 6.62597C1.28876 9.46043 0.00195312 13.0028 0.00195312 16.8458C0.00195312 26.1494 7.54406 33.6915 16.8477 33.6915C20.3492 33.6915 23.6011 32.6232 26.2954 30.7948C27.5692 29.9304 26.847 28.1738 25.3075 28.1738H16.8464C15.3774 28.1738 14.1865 26.983 14.1865 25.514C14.1865 24.045 15.3774 22.8541 16.8464 22.8541H31.3694C32.1047 22.8541 32.7725 22.4028 32.984 21.6986C33.4455 20.1619 33.6935 18.5328 33.6935 16.8458C33.6935 7.5421 26.1514 0 16.8477 0C14.7916 0 12.8215 0.368364 10.9999 1.0427C10.0088 1.40958 9.69615 2.61 10.2783 3.49202L15.166 10.8972C15.3402 11.1611 15.6966 11.2314 15.9579 11.0534V11.0534C17.0102 10.3368 18.4442 10.6089 19.1608 11.6612C19.8774 12.7135 19.6053 14.1475 18.553 14.8641L12.4833 18.9976C11.431 19.7142 9.99701 19.4421 9.28039 18.3898C8.56378 17.3375 8.8359 15.9035 9.8882 15.1869V15.1869C10.5521 14.7348 10.73 13.8333 10.2875 13.1629L6.08997 6.80342Z" fill="url(#paint0_linear_833_1572)"/>
<path d="M39.1953 18.94C39.1953 13.9084 42.2673 11.0645 47.8233 11.0645C53.3794 11.0645 56.4513 13.9084 56.4513 18.94C56.4513 23.9716 53.3794 26.8156 47.8233 26.8156C42.2673 26.8156 39.1953 23.9716 39.1953 18.94ZM43.1775 18.94C43.1775 21.6527 44.3532 22.9215 47.8233 22.9215C51.2935 22.9215 52.4692 21.8277 52.4692 18.94C52.4692 16.0523 51.5021 14.9585 47.8233 14.9585C44.1446 14.9585 43.1775 16.0523 43.1775 18.94Z" fill="#170E43"/>
<path d="M69.868 21.1063C69.9771 20.6565 70.3317 20.2745 70.7946 20.2745H72.9906C73.4519 20.2745 73.8319 20.6491 73.7888 21.1084C73.4455 24.7659 70.6672 26.8156 65.8985 26.8156C60.2855 26.8156 57.2136 23.9716 57.2136 18.94C57.2136 13.9084 60.2855 11.0645 65.8226 11.0645C70.5902 11.0645 73.4669 13.1701 73.8402 16.8337C73.8872 17.2942 73.5065 17.6712 73.0437 17.6712H70.6916C70.2471 17.6712 69.8938 17.3205 69.8095 16.8841C69.5368 15.472 68.6352 14.9585 65.8416 14.9585C61.6129 14.9585 61.1957 16.0523 61.1957 18.94C61.1957 21.6527 61.8215 22.9215 65.8416 22.9215C68.3974 22.9215 69.5578 22.3849 69.868 21.1063Z" fill="#170E43"/>
<path d="M74.8333 19.9901V12.1213C74.8333 11.6584 75.2085 11.2832 75.6714 11.2832H77.5981C78.061 11.2832 78.4362 11.6584 78.4362 12.1213V19.3119C78.4362 21.784 79.2516 22.9215 82.7786 22.9215C86.3816 22.9215 86.9694 21.9371 86.9694 19.3119V12.1213C86.9694 11.6584 87.3446 11.2832 87.8075 11.2832H89.7342C90.1971 11.2832 90.5723 11.6584 90.5723 12.1213V19.9901C90.5723 24.4966 87.8606 26.8156 82.6838 26.8156C77.4881 26.8156 74.8333 24.4966 74.8333 19.9901Z" fill="#170E43"/>
<path d="M93.12 26.5968C92.6571 26.5968 92.2819 26.2216 92.2819 25.7587V12.1213C92.2819 11.6584 92.6571 11.2832 93.12 11.2832H95.0467C95.5096 11.2832 95.8848 11.6584 95.8848 12.1213V21.9303C95.8848 22.3932 96.26 22.7684 96.7229 22.7684H104.813C105.275 22.7684 105.651 23.1436 105.651 23.6065V25.7587C105.651 26.2216 105.275 26.5968 104.813 26.5968H93.12Z" fill="#170E43"/>
<path d="M110.399 18.4806V19.4145C110.399 19.8774 110.774 20.2526 111.237 20.2526H118.094C118.557 20.2526 118.932 19.8774 118.932 19.4145V18.4806C118.932 15.8554 118.344 14.871 114.741 14.871C111.214 14.871 110.399 16.0085 110.399 18.4806ZM107.634 26.5968C107.171 26.5968 106.796 26.2216 106.796 25.7587V17.8899C106.796 13.3834 109.451 11.0645 114.646 11.0645C119.823 11.0645 122.535 13.3834 122.535 17.8899V25.7587C122.535 26.2216 122.16 26.5968 121.697 26.5968H119.77C119.307 26.5968 118.932 26.2216 118.932 25.7587V24.7003C118.932 24.2374 118.557 23.8622 118.094 23.8622H111.237C110.774 23.8622 110.399 24.2374 110.399 24.7003V25.7587C110.399 26.2216 110.023 26.5968 109.561 26.5968H107.634Z" fill="#170E43"/>
<path d="M136.944 18.699C136.87 18.7119 136.817 18.7757 136.817 18.8502V18.8502C136.817 18.9268 136.873 18.9916 136.949 19.0022L137.442 19.0713C139.073 19.29 140.002 20.5807 140.002 22.7028C140.002 25.3061 138.599 26.5968 135.736 26.5968H125.082C124.62 26.5968 124.244 26.2216 124.244 25.7587V12.1213C124.244 11.6584 124.62 11.2832 125.082 11.2832H135.489C138.296 11.2832 139.737 12.5739 139.737 15.0897C139.737 17.0586 138.865 18.3712 137.442 18.6119L136.944 18.699ZM128.496 14.7835C128.033 14.7835 127.658 15.1587 127.658 15.6215V16.2862C127.658 16.749 128.033 17.1243 128.496 17.1243H134.617C135.451 17.1243 135.755 16.818 135.755 15.921C135.755 15.0679 135.47 14.7835 134.693 14.7835H128.496ZM128.503 20.6319C128.037 20.6278 127.658 21.0042 127.658 21.47V22.2585C127.658 22.7213 128.033 23.0965 128.496 23.0965H135.129C135.698 23.0965 136.02 22.7246 136.02 21.8496C136.02 20.9964 135.698 20.6901 135.129 20.6901L128.503 20.6319Z" fill="#170E43"/>
<defs>
<linearGradient id="paint0_linear_833_1572" x1="13.9702" y1="1.39683" x2="18.1607" y2="43.3017" gradientUnits="userSpaceOnUse">
<stop stop-color="#794CFF"/>
<stop offset="1" stop-color="#482E99"/>
</linearGradient>
</defs>
</svg>
