<svg width="120" height="121" viewBox="0 0 120 121" fill="none" xmlns="http://www.w3.org/2000/svg">
<rect width="120" height="120" transform="translate(0 0.222656)" fill="white"/>
<path d="M33.2651 53.7148L21.8691 88.3446L99.786 89.8464L89.9802 55.835L33.2651 53.7148Z" fill="#AAB1BA"/>
<path opacity="0.996" fill-rule="evenodd" clip-rule="evenodd" d="M72.3995 46.3281H32.7344V59.7915C33.0651 59.3117 33.5363 58.9687 34.1478 58.762C36.7977 58.7016 62.214 58.6718 75.6686 58.6729C75.6685 58.6762 75.6684 58.6796 75.6683 58.683H78.1419C78.5782 58.6786 79.0146 58.6757 79.4509 58.6742C80.0933 58.6747 80.6783 58.6752 81.198 58.6759C82.8298 58.6846 84.4613 58.7134 86.0926 58.7622C86.7041 58.9689 87.1753 59.3119 87.506 59.7917V46.3283L72.3992 46.3283C72.3993 46.3283 72.3994 46.3282 72.3995 46.3281Z" fill="#C6CAD1"/>
<path fill-rule="evenodd" clip-rule="evenodd" d="M32.7357 46.3301C32.7357 50.8179 32.7357 55.3058 32.7357 59.7935C30.4276 66.186 28.1013 72.5744 25.7567 78.9591C25.6695 79.2179 25.6401 79.4819 25.6684 79.751C23.3119 79.7246 20.9561 79.751 18.6011 79.8302C17.8616 80.0976 17.3316 80.5463 17.011 81.1766C16.9817 80.4355 17.0111 79.6964 17.0993 78.9591C20.9754 68.3233 24.9213 57.711 28.937 47.1221C29.2096 46.8246 29.5335 46.5871 29.9088 46.4093C30.8492 46.3303 31.7915 46.3039 32.7357 46.3301Z" fill="#E3E4E6"/>
<path fill-rule="evenodd" clip-rule="evenodd" d="M87.5078 46.3301C88.452 46.3039 89.3942 46.3303 90.3347 46.4093C90.9634 46.709 91.4051 47.1577 91.6598 47.7557C95.488 58.1569 99.316 68.5579 103.144 78.9591C103.232 79.6964 103.262 80.4355 103.233 81.1766C102.912 80.5463 102.382 80.0976 101.642 79.8302C99.3462 79.751 97.0494 79.7246 94.7518 79.751C92.3371 73.0985 89.9225 66.446 87.5078 59.7935C87.5078 55.3058 87.5078 50.8179 87.5078 46.3301Z" fill="#E3E4E6"/>
<path fill-rule="evenodd" clip-rule="evenodd" d="M25.6685 79.7443C29.3204 79.7178 32.9718 79.7443 36.6228 79.8235C36.9313 79.8981 37.2258 80.0037 37.5062 80.1403C39.059 82.5277 40.5018 84.9828 41.8349 87.5055C42.1588 87.6904 42.4828 87.8751 42.8067 88.0599C48.5193 88.0864 54.2322 88.1127 59.9448 88.1391C65.9013 88.1634 71.8495 88.0842 77.7897 87.9015C77.9804 87.7501 78.1864 87.6182 78.4081 87.5055C79.7066 85.1775 81.0022 82.8545 82.2951 80.5363C82.601 80.2009 82.9838 79.9634 83.4436 79.8235C84.5021 79.7445 85.5622 79.718 86.6239 79.7443C88.6852 79.7443 90.7464 79.7443 92.8077 79.7443C93.5694 80.0844 94.129 80.6123 94.4862 81.3282C94.6041 87.5583 94.6041 93.7885 94.4862 100.019C94.2477 100.839 93.6881 101.367 92.8077 101.603C68.0134 101.603 43.2189 101.603 18.4245 101.603C17.7802 101.368 17.3385 100.945 17.0994 100.335C17.011 93.9471 16.9816 87.5586 17.011 81.1698C17.3317 80.5396 17.8617 80.0909 18.6012 79.8235C20.9562 79.7443 23.312 79.7178 25.6685 79.7443Z" fill="#EDEEF0"/>
<path fill-rule="evenodd" clip-rule="evenodd" d="M92.8086 79.7443C93.4565 79.7443 94.1042 79.7443 94.7521 79.7443C97.0497 79.7178 99.3465 79.7443 101.643 79.8235C102.382 80.0909 102.912 80.5396 103.233 81.1698C103.262 87.5586 103.233 93.9471 103.145 100.335C102.905 100.945 102.464 101.368 101.819 101.603C98.8158 101.603 95.8122 101.603 92.8086 101.603C93.689 101.367 94.2486 100.839 94.4871 100.019C94.6049 93.7885 94.6049 87.5583 94.4871 81.3282C94.1298 80.6123 93.5703 80.0844 92.8086 79.7443Z" fill="#EDEEF0"/>
<rect x="22.4004" y="91.0859" width="7.9507" height="2.47355" rx="1.23678" fill="#AAB1BA"/>
<rect x="22.4004" y="94.7969" width="7.9507" height="2.47355" rx="1.23678" fill="#AAB1BA"/>
<path d="M58.9873 20.3918C56.6683 17.4097 49.5 21.9967 49.6046 24.8231C49.7093 27.6495 57.6621 32.3187 59.3187 29.0058C60.9752 25.693 57.6621 25.7001 57.6621 24.8231C57.6621 23.9461 61.3064 23.374 58.9873 20.3918Z" fill="#D5C8FF"/>
<path d="M50.2031 24.8203L58.15 24.8203" stroke="#6E45E8" stroke-width="2.4" stroke-linecap="round"/>
<path d="M55.5667 76.1784C55.5667 76.1784 38.3624 70.6925 46.3938 58.2979C54.4252 45.9033 81.1223 58.2981 83.8488 40.9215C86.5753 23.545 63.7938 24.9655 63.7938 24.9655" stroke="#6E45E8" stroke-width="2.4" stroke-linecap="round" stroke-dasharray="7.2 7.2"/>
</svg>
