<svg width="36" height="36" viewBox="0 0 36 36" fill="none" xmlns="http://www.w3.org/2000/svg">
<rect x="0.5" y="0.5" width="35" height="35" rx="17.5" stroke="#C6CAD1"/>
<path d="M21.1634 23.5876C21.3396 23.7637 21.4385 24.0026 21.4385 24.2516C21.4385 24.5007 21.3396 24.7396 21.1634 24.9157C20.9873 25.0918 20.7484 25.1908 20.4994 25.1908C20.2503 25.1908 20.0114 25.0918 19.8353 24.9157L13.5853 18.6657C13.4979 18.5786 13.4286 18.4751 13.3812 18.3611C13.3339 18.2472 13.3096 18.125 13.3096 18.0016C13.3096 17.8782 13.3339 17.7561 13.3812 17.6421C13.4286 17.5282 13.4979 17.4247 13.5853 17.3376L19.8353 11.0876C20.0114 10.9114 20.2503 10.8125 20.4994 10.8125C20.7484 10.8125 20.9873 10.9114 21.1634 11.0876C21.3396 11.2637 21.4385 11.5026 21.4385 11.7516C21.4385 12.0007 21.3396 12.2396 21.1634 12.4157L15.5783 18.0008L21.1634 23.5876Z" fill="#1E242C"/>
</svg>
