<svg width="200" height="201" viewBox="0 0 200 201" fill="none" xmlns="http://www.w3.org/2000/svg">
<rect width="200" height="200" transform="translate(0 0.121826)" fill="white"/>
<rect x="39.4157" y="37.2644" width="109.917" height="129.63" rx="4.779" fill="#EDEEF0" stroke="#C6CAD1" stroke-width="7.1685"/>
<path fill-rule="evenodd" clip-rule="evenodd" d="M84.8265 29.4985C86.6556 26.3068 90.3782 24.1218 94.673 24.1218C98.9678 24.1218 102.69 26.3068 104.52 29.4985H109.906C111.226 29.4985 112.296 30.5683 112.296 31.888V42.6407C112.296 43.9604 111.226 45.0302 109.906 45.0302H78.8426C77.5229 45.0302 76.4531 43.9604 76.4531 42.6407V31.888C76.4531 30.5683 77.5229 29.4985 78.8426 29.4985H84.8265Z" fill="#C6CAD1"/>
<rect x="51.3632" y="53.3921" width="29.2714" height="29.2714" rx="3.58425" fill="#C6CAD1"/>
<rect x="86.6084" y="60.561" width="29.2714" height="5.37638" rx="2.68819" fill="#C6CAD1"/>
<rect x="51.3632" y="93.7488" width="49.5821" height="5.37638" rx="2.68819" fill="#C6CAD1"/>
<rect x="86.6084" y="71.3142" width="51.3743" height="5.37638" rx="2.68819" fill="#C6CAD1"/>
<rect x="51.1606" y="104.821" width="86.6194" height="5.37638" rx="2.68819" fill="#C6CAD1"/>
<path d="M52.5773 151.843C51.7981 151.843 51.1606 151.188 51.1606 150.409C51.1606 149.63 51.7981 148.992 52.5773 148.992H65.0095C65.9835 146.69 67.6482 144.264 69.8088 142.139C65.1334 138.862 61.3613 133.921 61.3613 128.148C61.3613 123.207 64.8855 119.329 69.4369 119.329C76.2019 119.329 80.6293 126.66 81.0189 136.011C82.2055 135.781 83.4274 135.657 84.7025 135.657C86.9871 135.657 88.4569 136.79 88.4569 138.561C88.4569 139.978 87.6777 141.43 87.6777 142.068C87.6777 142.28 87.8017 142.369 87.9434 142.369C89.183 142.369 93.9823 136.383 97.0815 136.383C100.606 136.383 98.7816 142.263 100.694 142.263C101.296 142.263 101.81 141.749 102.43 141.749C103.12 141.749 103.563 142.298 103.563 142.971C103.563 143.52 103.262 143.945 102.837 144.228C102.111 144.706 101.172 144.901 100.429 144.901C95.9835 144.901 97.6128 139.376 96.3023 139.376C94.8501 139.376 90.529 145.521 86.9339 145.521C85.6234 145.521 84.6494 144.706 84.6494 143.361C84.6494 141.82 85.4817 140.616 85.4817 139.075C85.4817 138.614 85.1275 138.349 84.5077 138.349C83.3035 138.349 82.1346 138.473 81.0189 138.721C80.895 142.528 80.2574 146.035 79.1948 148.992H102.943C103.723 148.992 104.378 149.63 104.378 150.409C104.378 151.188 103.723 151.843 102.943 151.843H77.9375C75.8123 155.846 72.6954 158.325 68.9056 158.325C65.5762 158.325 63.9646 156.288 63.9646 153.437C63.9646 152.924 64.0177 152.392 64.124 151.843H52.5773ZM64.0709 128.148C64.0709 133.656 68.0378 137.871 71.7391 140.421C73.6695 138.88 75.9009 137.587 78.3448 136.737C78.1854 128.626 74.7497 122.02 69.4369 122.02C66.4085 122.02 64.0709 124.695 64.0709 128.148ZM52.0815 144.937C51.6033 144.476 51.6033 143.786 52.0815 143.307L54.2952 141.111L52.0815 138.898C51.6033 138.455 51.6033 137.747 52.0815 137.286C52.5419 136.808 53.2326 136.808 53.6931 137.286L55.9245 139.482L58.1382 137.286C58.5986 136.826 59.2893 136.808 59.7497 137.286C60.2279 137.747 60.2279 138.437 59.7497 138.898L57.536 141.111L59.7497 143.307C60.2279 143.768 60.2279 144.476 59.7497 144.937C59.2893 145.397 58.5986 145.397 58.1382 144.937L55.9245 142.723L53.6931 144.937C53.2326 145.379 52.5419 145.397 52.0815 144.937ZM73.6517 144.37C73.1205 144.104 72.5715 143.821 72.0225 143.52C70.1807 145.238 68.7462 147.168 67.843 148.992H76.3082C77.3708 146.353 78.0791 143.095 78.2739 139.553C76.7509 140.155 75.3519 140.952 74.0768 141.855C74.3247 141.997 74.5904 142.121 74.8206 142.245C75.3342 142.493 75.5644 142.918 75.5644 143.343C75.5644 143.963 75.0331 144.529 74.3247 144.529C74.1122 144.529 73.8997 144.476 73.6517 144.37ZM66.7273 152.924C66.7273 154.518 67.5242 155.633 69.2243 155.633C71.3849 155.633 73.3153 154.216 74.8383 151.843H66.8336C66.7627 152.215 66.7273 152.587 66.7273 152.924Z" fill="#C6CAD1"/>
<circle cx="138.495" cy="149.538" r="26.5832" fill="#794CFF"/>
<path d="M126.419 151.202L136.645 159.813C137.225 160.302 138.107 160.133 138.466 159.466L150.314 137.463" stroke="white" stroke-width="4.779" stroke-linecap="round"/>
</svg>
