<svg width="16" height="16" viewBox="0 0 16 16" fill="none" xmlns="http://www.w3.org/2000/svg">
<path d="M12.4995 3L8.49951 3V1C8.49951 0.867392 8.44683 0.740215 8.35307 0.646447C8.2593 0.552678 8.13212 0.5 7.99951 0.5C7.8669 0.5 7.73973 0.552678 7.64596 0.646447C7.55219 0.740215 7.49951 0.867392 7.49951 1V3H3.49951C2.96908 3 2.46037 3.21071 2.0853 3.58579C1.71023 3.96086 1.49951 4.46957 1.49951 5V12C1.49951 12.5304 1.71023 13.0391 2.0853 13.4142C2.46037 13.7893 2.96908 14 3.49951 14H12.4995C13.0299 14 13.5387 13.7893 13.9137 13.4142C14.2888 13.0391 14.4995 12.5304 14.4995 12V5C14.4995 4.46957 14.2888 3.96086 13.9137 3.58579C13.5387 3.21071 13.0299 3 12.4995 3ZM10.7495 6C10.8978 6 11.0429 6.04399 11.1662 6.1264C11.2895 6.20881 11.3857 6.32594 11.4424 6.46299C11.4992 6.60003 11.514 6.75083 11.4851 6.89632C11.4562 7.0418 11.3847 7.17544 11.2798 7.28033C11.175 7.38522 11.0413 7.45665 10.8958 7.48559C10.7503 7.51453 10.5995 7.49968 10.4625 7.44291C10.3255 7.38614 10.2083 7.29001 10.1259 7.16668C10.0435 7.04334 9.99951 6.89834 9.99951 6.75C9.99951 6.55109 10.0785 6.36032 10.2192 6.21967C10.3598 6.07902 10.5506 6 10.7495 6ZM5.99951 11.5H4.99951C4.7343 11.5 4.47994 11.3946 4.29241 11.2071C4.10487 11.0196 3.99951 10.7652 3.99951 10.5C3.99951 10.2348 4.10487 9.98043 4.29241 9.79289C4.47994 9.60536 4.7343 9.5 4.99951 9.5H5.99951V11.5ZM5.24951 7.5C5.10118 7.5 4.95617 7.45601 4.83283 7.3736C4.7095 7.29119 4.61337 7.17406 4.5566 7.03701C4.49984 6.89997 4.48498 6.74917 4.51392 6.60368C4.54286 6.4582 4.61429 6.32456 4.71918 6.21967C4.82407 6.11478 4.95771 6.04335 5.10319 6.01441C5.24868 5.98547 5.39948 6.00032 5.53652 6.05709C5.67357 6.11386 5.7907 6.20999 5.87311 6.33332C5.95553 6.45666 5.99951 6.60166 5.99951 6.75C5.99951 6.94891 5.92049 7.13968 5.77984 7.28033C5.63919 7.42098 5.44842 7.5 5.24951 7.5ZM8.99951 11.5H6.99951V9.5H8.99951V11.5ZM10.9995 11.5H9.99951V9.5H10.9995C11.2647 9.5 11.5191 9.60536 11.7066 9.79289C11.8942 9.98043 11.9995 10.2348 11.9995 10.5C11.9995 10.7652 11.8942 11.0196 11.7066 11.2071C11.5191 11.3946 11.2647 11.5 10.9995 11.5Z" fill="#848D9B"/>
</svg>
