<svg width="216" height="114" viewBox="0 0 216 114" fill="none" xmlns="http://www.w3.org/2000/svg">
<path d="M199.397 53.2603C199.397 67.6212 190.098 80.734 174.828 90.294C159.569 99.8476 138.443 105.781 115.068 105.781C91.6942 105.781 70.5678 99.8476 55.3085 90.294C40.039 80.734 30.7397 67.6212 30.7397 53.2603C30.7397 38.8993 40.039 25.7866 55.3085 16.2266C70.5678 6.67294 91.6942 0.739726 115.068 0.739726C138.443 0.739726 159.569 6.67294 174.828 16.2266C190.098 25.7866 199.397 38.8993 199.397 53.2603Z" fill="#E6F2FF" stroke="#B0D7FF" stroke-width="1.47945"/>
<g opacity="0.6">
<path opacity="0.73" d="M72.0268 26.8084C72.0268 26.8084 71.3141 26.2577 71.3509 25.8635C71.3808 25.5426 71.8771 25.4816 71.9222 25.1624C71.9678 24.84 71.556 24.3444 71.556 24.3444" stroke="#FF547C" stroke-width="0.790027" stroke-linecap="round"/>
<path opacity="0.71" d="M90.2029 18.8804C90.2029 18.8804 90.4848 18.4836 90.8452 18.422C91.1384 18.3719 91.3363 18.562 91.6325 18.5184C91.9317 18.4744 92.252 18.2107 92.252 18.2107" stroke="#FF547C" stroke-width="0.790027" stroke-linecap="round"/>
<path opacity="0.99" d="M153.864 25.6501C153.864 25.6501 154.122 25.1203 154.554 25.0052C154.905 24.9115 155.193 25.1305 155.549 25.0447C155.909 24.958 156.245 24.5921 156.245 24.5921" stroke="#FF547C" stroke-width="0.790027" stroke-linecap="round"/>
<path opacity="0.82" d="M85.3903 50.3026C85.3903 50.3026 86.0015 49.6698 86.644 49.6169C87.1669 49.5738 87.45 49.9245 87.9759 49.8929C88.5072 49.861 89.1433 49.4594 89.1433 49.4594" stroke="#FF547C" stroke-width="0.790027" stroke-linecap="round"/>
<path opacity="0.81" d="M64.2044 87.3414C64.2044 87.3414 63.4631 87.0264 63.3442 86.7076C63.2474 86.4481 63.5983 86.3151 63.5136 86.0543C63.428 85.7909 62.9337 85.4683 62.9337 85.4683" stroke="#FF547C" stroke-width="0.790027" stroke-linecap="round"/>
<path opacity="0.9" d="M110.503 85.6777C110.503 85.6777 110.055 86.3773 109.443 86.4991C108.945 86.5983 108.589 86.2771 108.085 86.3651C107.576 86.454 107.051 86.9246 107.051 86.9246" stroke="#FF547C" stroke-width="0.790027" stroke-linecap="round"/>
<path opacity="0.88" d="M72.4825 20.0686C72.4825 20.0686 73.6119 20.6792 73.7134 21.2113C73.796 21.6443 73.1776 21.8116 73.2399 22.2451C73.3028 22.6829 74.0224 23.2723 74.0224 23.2723" stroke="#FF547C" stroke-width="0.790027" stroke-linecap="round"/>
<path opacity="0.98" d="M91.7478 26.7531C91.7478 26.7531 92.198 26.34 92.639 26.3197C92.9977 26.3033 93.1723 26.5473 93.5326 26.5386C93.8966 26.5299 94.3515 26.2737 94.3515 26.2737" stroke="#FF547C" stroke-width="0.790027" stroke-linecap="round"/>
<path opacity="0.95" d="M157.446 43.6844C157.446 43.6844 157.297 42.9786 157.665 42.6871C157.965 42.45 158.447 42.5967 158.758 42.3667C159.073 42.1344 159.138 41.589 159.138 41.589" stroke="#FF547C" stroke-width="0.790027" stroke-linecap="round"/>
<path opacity="0.86" d="M80.3485 42.4661C80.3485 42.4661 79.0866 42.3415 78.6329 41.9444C78.2638 41.6212 78.597 41.2836 78.2424 40.9535C77.8842 40.6199 76.9374 40.3786 76.9374 40.3786" stroke="#FF547C" stroke-width="0.790027" stroke-linecap="round"/>
<path opacity="0.99" d="M87.2409 47.0538C87.2409 47.0538 86.2063 46.9024 85.8644 46.5593C85.5863 46.2802 85.8911 46.0167 85.6255 45.7324C85.3573 45.4452 84.5936 45.2105 84.5936 45.2105" stroke="#FF547C" stroke-width="0.790027" stroke-linecap="round"/>
<path opacity="0.72" d="M146.435 61.0412C146.435 61.0412 145.829 61.237 145.456 61.1369C145.152 61.0555 145.148 60.8245 144.847 60.7368C144.543 60.6481 144.024 60.7235 144.024 60.7235" stroke="#FF547C" stroke-width="0.790027" stroke-linecap="round"/>
<path opacity="0.98" d="M58.4701 70.6959C58.4701 70.6959 57.7331 70.1791 57.739 69.7901C57.7438 69.4735 58.2232 69.3962 58.243 69.0806C58.2629 68.7619 57.8236 68.2888 57.8236 68.2888" stroke="#FF547C" stroke-width="0.790027" stroke-linecap="round"/>
<path opacity="0.92" d="M79.2446 87.5468C79.2446 87.5468 79.5145 87.8872 79.4201 88.0832C79.3433 88.2426 79.0708 88.2301 78.9863 88.3874C78.9009 88.5463 79.0231 88.8327 79.0231 88.8327" stroke="#FF547C" stroke-width="0.790027" stroke-linecap="round"/>
<path opacity="0.76" d="M126.913 76.3361C126.913 76.3361 127.006 75.9348 127.29 75.8189C127.521 75.7245 127.76 75.8602 127.995 75.7712C128.234 75.6812 128.409 75.392 128.409 75.392" stroke="#FF547C" stroke-width="0.790027" stroke-linecap="round"/>
<path opacity="0.79" d="M71.2016 33.2425C71.2016 33.2425 71.0672 33.67 70.75 33.7836C70.4919 33.8761 70.2447 33.7212 69.9817 33.8078C69.716 33.8953 69.5023 34.1992 69.5023 34.1992" stroke="#FF547C" stroke-width="0.790027" stroke-linecap="round"/>
<path opacity="0.84" d="M107.377 29.863C107.377 29.863 106.518 29.4284 106.423 29.0343C106.345 28.7136 106.796 28.5781 106.733 28.2567C106.67 27.932 106.115 27.5061 106.115 27.5061" stroke="#FF547C" stroke-width="0.790027" stroke-linecap="round"/>
<path opacity="0.72" d="M140.508 25.702C140.508 25.702 140.651 26.4744 140.24 26.7878C139.906 27.0428 139.382 26.8764 139.035 27.1234C138.684 27.3729 138.597 27.9674 138.597 27.9674" stroke="#FF547C" stroke-width="0.790027" stroke-linecap="round"/>
<path opacity="0.74" d="M43.4312 58.0412C43.4312 58.0412 44.2102 58.6239 44.1818 59.0481C44.1586 59.3933 43.6284 59.4651 43.5889 59.8087C43.549 60.1558 44.004 60.6832 44.004 60.6832" stroke="#FF547C" stroke-width="0.790027" stroke-linecap="round"/>
<path opacity="0.88" d="M81.7081 44.0126C81.7081 44.0126 82.6109 44.6879 82.5779 45.1795C82.5511 45.5795 81.9367 45.6628 81.8909 46.061C81.8446 46.4632 82.372 47.0744 82.372 47.0744" stroke="#FF547C" stroke-width="0.790027" stroke-linecap="round"/>
<path opacity="0.75" d="M151.301 64.3121C151.301 64.3121 152.359 64.063 152.955 64.2708C153.44 64.4398 153.387 64.8183 153.865 64.9973C154.348 65.1782 155.232 65.1161 155.232 65.1161" stroke="#FF547C" stroke-width="0.790027" stroke-linecap="round"/>
<path opacity="0.95" d="M70.9709 90.0701C70.9709 90.0701 71.8681 90.0952 72.2294 90.3551C72.5234 90.5666 72.3272 90.8238 72.6118 91.041C72.8993 91.2604 73.5887 91.3845 73.5887 91.3845" stroke="#FF547C" stroke-width="0.790027" stroke-linecap="round"/>
<path opacity="0.75" d="M90.6016 93.2797C90.6016 93.2797 91.5621 93.3179 91.9419 93.6001C92.2509 93.8297 92.0336 94.102 92.3325 94.3376C92.6344 94.5757 93.3696 94.717 93.3696 94.717" stroke="#FF547C" stroke-width="0.790027" stroke-linecap="round"/>
<path opacity="0.99" d="M128.132 95.0878C128.132 95.0878 127.873 95.5598 127.476 95.6544C127.153 95.7313 126.902 95.5277 126.575 95.5974C126.245 95.6678 125.923 95.9905 125.923 95.9905" stroke="#FF547C" stroke-width="0.790027" stroke-linecap="round"/>
</g>
<g opacity="0.6">
<path opacity="0.73" d="M118.164 70.2728C118.164 70.2728 118.752 70.7168 118.726 71.0397C118.704 71.3025 118.299 71.3569 118.265 71.6185C118.23 71.8827 118.572 72.2844 118.572 72.2844" stroke="#FF547C" stroke-width="0.790027" stroke-linecap="round"/>
<path opacity="0.71" d="M103.366 76.9194C103.366 76.9194 103.139 77.2467 102.845 77.3003C102.605 77.3439 102.442 77.1902 102.2 77.2286C101.955 77.2673 101.696 77.486 101.696 77.486" stroke="#FF547C" stroke-width="0.790027" stroke-linecap="round"/>
<path opacity="0.99" d="M51.2218 71.9586C51.2218 71.9586 51.0152 72.3943 50.6631 72.4925C50.3767 72.5723 50.1391 72.3957 49.8484 72.4692C49.5547 72.5434 49.2831 72.8458 49.2831 72.8458" stroke="#FF547C" stroke-width="0.790027" stroke-linecap="round"/>
<path opacity="0.82" d="M107.017 51.1711C107.017 51.1711 106.523 51.6944 105.998 51.7435C105.57 51.7835 105.336 51.4992 104.906 51.5298C104.471 51.5608 103.955 51.8951 103.955 51.8951" stroke="#FF547C" stroke-width="0.790027" stroke-linecap="round"/>
<path opacity="0.81" d="M124.012 20.6753C124.012 20.6753 124.622 20.9262 124.722 21.186C124.804 21.3974 124.518 21.5094 124.589 21.722C124.662 21.9367 125.069 22.1962 125.069 22.1962" stroke="#FF547C" stroke-width="0.790027" stroke-linecap="round"/>
<path opacity="0.9" d="M86.1495 22.4558C86.1495 22.4558 86.5098 21.8793 87.0094 21.774C87.416 21.6884 87.71 21.9479 88.1213 21.8713C88.5368 21.794 88.9624 21.4042 88.9624 21.4042" stroke="#FF547C" stroke-width="0.790027" stroke-linecap="round"/>
<path opacity="0.88" d="M117.852 75.7887C117.852 75.7887 116.923 75.2994 116.835 74.865C116.764 74.5115 117.268 74.369 117.213 74.0149C117.158 73.6573 116.563 73.1817 116.563 73.1817" stroke="#FF547C" stroke-width="0.790027" stroke-linecap="round"/>
<path opacity="0.98" d="M102.031 70.4932C102.031 70.4932 101.666 70.8353 101.306 70.8559C101.012 70.8726 100.867 70.6746 100.573 70.6849C100.275 70.6954 99.9051 70.9091 99.9051 70.9091" stroke="#FF547C" stroke-width="0.790027" stroke-linecap="round"/>
<path opacity="0.95" d="M48.1261 57.2397C48.1261 57.2397 48.2544 57.8158 47.9561 58.0576C47.7133 58.2544 47.3171 58.1387 47.0646 58.3297C46.8095 58.5226 46.7613 58.9694 46.7613 58.9694" stroke="#FF547C" stroke-width="0.790027" stroke-linecap="round"/>
<path opacity="0.86" d="M111.213 57.5335C111.213 57.5335 112.246 57.6239 112.621 57.9447C112.926 58.2057 112.656 58.4849 112.949 58.7518C113.246 59.0214 114.022 59.2103 114.022 59.2103" stroke="#FF547C" stroke-width="0.790027" stroke-linecap="round"/>
<path opacity="0.99" d="M105.533 53.8452C105.533 53.8452 106.381 53.9596 106.664 54.2372C106.894 54.463 106.647 54.6814 106.867 54.9115C107.089 55.1441 107.716 55.3292 107.716 55.3292" stroke="#FF547C" stroke-width="0.790027" stroke-linecap="round"/>
<path opacity="0.72" d="M56.9772 42.9343C56.9772 42.9343 57.4707 42.7686 57.7772 42.847C58.0266 42.9109 58.032 43.0998 58.2788 43.1689C58.5282 43.2387 58.9526 43.1723 58.9526 43.1723" stroke="#FF547C" stroke-width="0.790027" stroke-linecap="round"/>
<path opacity="0.98" d="M128.856 34.2385C128.856 34.2385 129.464 34.6546 129.462 34.973C129.461 35.232 129.07 35.2996 129.057 35.558C129.043 35.8189 129.407 36.202 129.407 36.202" stroke="#FF547C" stroke-width="0.790027" stroke-linecap="round"/>
<path opacity="0.92" d="M111.707 20.6431C111.707 20.6431 111.483 20.367 111.558 20.2058C111.62 20.0746 111.843 20.0824 111.91 19.9529C111.979 19.8221 111.876 19.589 111.876 19.589" stroke="#FF547C" stroke-width="0.790027" stroke-linecap="round"/>
<path opacity="0.76" d="M72.8094 30.2501C72.8094 30.2501 72.7369 30.5793 72.5058 30.6767C72.3177 30.756 72.1212 30.6472 71.929 30.7222C71.7349 30.7979 71.5944 31.0361 71.5944 31.0361" stroke="#FF547C" stroke-width="0.790027" stroke-linecap="round"/>
<path opacity="0.79" d="M118.781 64.995C118.781 64.995 118.887 64.644 119.145 64.5482C119.356 64.4701 119.559 64.5947 119.774 64.5214C119.99 64.4474 120.162 64.1968 120.162 64.1968" stroke="#FF547C" stroke-width="0.790027" stroke-linecap="round"/>
<path opacity="0.84" d="M89.2152 68.0922C89.2152 68.0922 89.922 68.4398 90.0038 68.7614C90.0703 69.0231 89.7024 69.138 89.7566 69.4004C89.8115 69.6655 90.2695 70.0089 90.2695 70.0089" stroke="#FF547C" stroke-width="0.790027" stroke-linecap="round"/>
<path opacity="0.72" d="M62.1478 71.7984C62.1478 71.7984 62.0236 71.1678 62.357 70.9077C62.6282 70.696 63.0586 70.8273 63.3403 70.6221C63.6249 70.4148 63.6904 69.9276 63.6904 69.9276" stroke="#FF547C" stroke-width="0.790027" stroke-linecap="round"/>
<path opacity="0.74" d="M141.275 44.4561C141.275 44.4561 140.632 43.9864 140.652 43.6391C140.668 43.3565 141.101 43.2929 141.13 43.0114C141.159 42.7271 140.782 42.2998 140.782 42.2998" stroke="#FF547C" stroke-width="0.790027" stroke-linecap="round"/>
<path opacity="0.88" d="M110.088 56.2792C110.088 56.2792 109.343 55.7349 109.365 55.3324C109.384 55.0049 109.886 54.9312 109.919 54.605C109.954 54.2755 109.517 53.7803 109.517 53.7803" stroke="#FF547C" stroke-width="0.790027" stroke-linecap="round"/>
<path opacity="0.75" d="M52.966 40.3079C52.966 40.3079 52.1029 40.5213 51.6136 40.3567C51.2153 40.2228 51.2549 39.9127 50.8623 39.7706C50.4658 39.627 49.743 39.6859 49.743 39.6859" stroke="#FF547C" stroke-width="0.790027" stroke-linecap="round"/>
<path opacity="0.95" d="M118.453 18.5018C118.453 18.5018 117.718 18.4895 117.42 18.2802C117.178 18.1098 117.336 17.8976 117.101 17.7225C116.864 17.5456 116.299 17.4503 116.299 17.4503" stroke="#FF547C" stroke-width="0.790027" stroke-linecap="round"/>
<path opacity="0.75" d="M102.362 16.0533C102.362 16.0533 101.576 16.0308 101.263 15.8033C101.008 15.6183 101.183 15.3935 100.936 15.2035C100.687 15.0115 100.085 14.9026 100.085 14.9026" stroke="#FF547C" stroke-width="0.790027" stroke-linecap="round"/>
<path opacity="0.99" d="M71.6414 14.9184C71.6414 14.9184 71.8491 14.5298 72.1727 14.4489C72.4361 14.383 72.6431 14.5473 72.91 14.4873C73.1797 14.4267 73.44 14.1598 73.44 14.1598" stroke="#FF547C" stroke-width="0.790027" stroke-linecap="round"/>
</g>
<g opacity="0.6">
<path opacity="0.73" d="M148.017 82.3256C148.017 82.3256 148.795 82.8919 148.767 83.314C148.745 83.6574 148.217 83.7377 148.179 84.0799C148.14 84.4256 148.595 84.9422 148.595 84.9422" stroke="#FF547C" stroke-width="0.790027" stroke-linecap="round"/>
<path opacity="0.71" d="M128.852 91.3432C128.852 91.3432 128.563 91.7756 128.18 91.8523C127.868 91.9147 127.651 91.7178 127.336 91.7734C127.018 91.8295 126.684 92.1209 126.684 92.1209" stroke="#FF547C" stroke-width="0.790027" stroke-linecap="round"/>
<path opacity="0.99" d="M60.6715 86.058C60.6715 86.058 60.4117 86.6315 59.9544 86.7677C59.5823 86.8784 59.2682 86.6533 58.8904 86.7558C58.5087 86.8594 58.161 87.2603 58.161 87.2603" stroke="#FF547C" stroke-width="0.790027" stroke-linecap="round"/>
<path opacity="0.82" d="M133.031 57.6455C133.031 57.6455 132.398 58.3398 131.714 58.4159C131.157 58.4778 130.844 58.1121 130.283 58.1618C129.717 58.2121 129.05 58.6603 129.05 58.6603" stroke="#FF547C" stroke-width="0.790027" stroke-linecap="round"/>
<path opacity="0.81" d="M154.521 17.4522C154.521 17.4522 155.322 17.7659 155.459 18.1028C155.57 18.3768 155.2 18.5296 155.298 18.8054C155.397 19.0841 155.935 19.4135 155.935 19.4135" stroke="#FF547C" stroke-width="0.790027" stroke-linecap="round"/>
<path opacity="0.9" d="M105.137 20.6406C105.137 20.6406 105.594 19.8799 106.244 19.7311C106.773 19.6101 107.163 19.9421 107.698 19.8328C108.238 19.7223 108.785 19.2039 108.785 19.2039" stroke="#FF547C" stroke-width="0.790027" stroke-linecap="round"/>
<path opacity="0.88" d="M147.736 89.5369C147.736 89.5369 146.511 88.9193 146.387 88.3543C146.285 87.8946 146.941 87.697 146.861 87.2361C146.78 86.7705 145.994 86.1632 145.994 86.1632" stroke="#FF547C" stroke-width="0.790027" stroke-linecap="round"/>
<path opacity="0.98" d="M126.962 82.9855C126.962 82.9855 126.494 83.4404 126.024 83.4754C125.641 83.504 125.447 83.2488 125.063 83.269C124.675 83.2894 124.197 83.5768 124.197 83.5768" stroke="#FF547C" stroke-width="0.790027" stroke-linecap="round"/>
<path opacity="0.95" d="M56.2953 66.912C56.2953 66.912 56.4761 67.6611 56.0921 67.9835C55.7797 68.2459 55.2599 68.104 54.9346 68.359C54.606 68.6167 54.5532 69.201 54.5532 69.201" stroke="#FF547C" stroke-width="0.790027" stroke-linecap="round"/>
<path opacity="0.86" d="M138.654 65.8612C138.654 65.8612 140.005 65.9557 140.501 66.3658C140.905 66.6996 140.56 67.0703 140.949 67.412C141.341 67.7572 142.36 67.986 142.36 67.986" stroke="#FF547C" stroke-width="0.790027" stroke-linecap="round"/>
<path opacity="0.99" d="M131.155 61.1728C131.155 61.1728 132.264 61.3029 132.64 61.6588C132.945 61.9483 132.628 62.239 132.92 62.5344C133.215 62.8329 134.038 63.0602 134.038 63.0602" stroke="#FF547C" stroke-width="0.790027" stroke-linecap="round"/>
<path opacity="0.72" d="M67.5231 48.0433C67.5231 48.0433 68.1635 47.8158 68.5653 47.9112C68.8923 47.9889 68.9037 48.2354 69.2275 48.3199C69.5545 48.4053 70.1071 48.309 70.1071 48.309" stroke="#FF547C" stroke-width="0.790027" stroke-linecap="round"/>
<path opacity="0.98" d="M161.152 35.0492C161.152 35.0492 161.955 35.5785 161.961 35.9941C161.965 36.3323 161.456 36.4295 161.444 36.767C161.433 37.1079 161.916 37.5997 161.916 37.5997" stroke="#FF547C" stroke-width="0.790027" stroke-linecap="round"/>
<path opacity="0.92" d="M138.456 17.6915C138.456 17.6915 138.157 17.3362 138.252 17.1241C138.329 16.9515 138.621 16.9565 138.706 16.786C138.792 16.6137 138.653 16.3117 138.653 16.3117" stroke="#FF547C" stroke-width="0.790027" stroke-linecap="round"/>
<path opacity="0.76" d="M87.9004 31.1184C87.9004 31.1184 87.8133 31.5497 87.5138 31.6821C87.27 31.7899 87.011 31.6523 86.7619 31.7546C86.5102 31.8579 86.3323 32.1721 86.3323 32.1721" stroke="#FF547C" stroke-width="0.790027" stroke-linecap="round"/>
<path opacity="0.79" d="M148.702 75.4266C148.702 75.4266 148.832 74.966 149.168 74.835C149.44 74.7283 149.709 74.8863 149.987 74.7857C150.268 74.6842 150.487 74.3531 150.487 74.3531" stroke="#FF547C" stroke-width="0.790027" stroke-linecap="round"/>
<path opacity="0.84" d="M110.179 80.1434C110.179 80.1434 111.109 80.5812 111.223 80.9991C111.316 81.3392 110.839 81.4976 110.915 81.8388C110.993 82.1836 111.599 82.6214 111.599 82.6214" stroke="#FF547C" stroke-width="0.790027" stroke-linecap="round"/>
<path opacity="0.72" d="M74.9309 85.5956C74.9309 85.5956 74.7543 84.7753 75.1836 84.4282C75.5329 84.1457 76.0976 84.3073 76.4607 84.033C76.8275 83.7559 76.9019 83.1185 76.9019 83.1185" stroke="#FF547C" stroke-width="0.790027" stroke-linecap="round"/>
<path opacity="0.74" d="M177.597 48.1036C177.597 48.1036 176.747 47.5051 176.765 47.0513C176.779 46.6821 177.343 46.5892 177.375 46.2211C177.407 45.8492 176.905 45.3 176.905 45.3" stroke="#FF547C" stroke-width="0.790027" stroke-linecap="round"/>
<path opacity="0.88" d="M137.155 64.2482C137.155 64.2482 136.17 63.5546 136.19 63.0288C136.207 62.6008 136.86 62.4932 136.897 62.0666C136.934 61.6357 136.353 60.9992 136.353 60.9992" stroke="#FF547C" stroke-width="0.790027" stroke-linecap="round"/>
<path opacity="0.75" d="M62.2269 44.6992C62.2269 44.6992 61.1051 44.9975 60.4626 44.7938C59.9397 44.6281 59.9843 44.2224 59.4686 44.0458C58.9477 43.8674 58.0055 43.9607 58.0055 43.9607" stroke="#FF547C" stroke-width="0.790027" stroke-linecap="round"/>
<path opacity="0.95" d="M147.213 14.7451C147.213 14.7451 146.255 14.7458 145.861 14.4793C145.541 14.2624 145.742 13.9818 145.432 13.7586C145.118 13.5331 144.378 13.4216 144.378 13.4216" stroke="#FF547C" stroke-width="0.790027" stroke-linecap="round"/>
<path opacity="0.75" d="M126.154 11.9142C126.154 11.9142 125.128 11.9028 124.714 11.6131C124.377 11.3773 124.6 11.0799 124.274 10.8374C123.944 10.5925 123.155 10.464 123.155 10.464" stroke="#FF547C" stroke-width="0.790027" stroke-linecap="round"/>
<path opacity="0.99" d="M86.027 11.1318C86.027 11.1318 86.2893 10.6199 86.7099 10.5068C87.0522 10.4148 87.3261 10.6246 87.6732 10.5402C88.0238 10.4549 88.3576 10.1006 88.3576 10.1006" stroke="#FF547C" stroke-width="0.790027" stroke-linecap="round"/>
</g>
<g opacity="0.6">
<path opacity="0.73" d="M125.696 96.5556C125.696 96.5556 126.175 96.9723 126.132 97.2481C126.098 97.4725 125.747 97.4949 125.702 97.7176C125.656 97.9424 125.925 98.308 125.925 98.308" stroke="#FF547C" stroke-width="0.790027" stroke-linecap="round"/>
<path opacity="0.71" d="M112.585 101.378C112.585 101.378 112.371 101.645 112.115 101.674C111.906 101.697 111.775 101.555 111.565 101.573C111.353 101.592 111.116 101.764 111.116 101.764" stroke="#FF547C" stroke-width="0.790027" stroke-linecap="round"/>
<path opacity="0.99" d="M68.0903 93.9838C68.0903 93.9838 67.8866 94.3457 67.5783 94.4088C67.3274 94.4602 67.134 94.2943 66.8798 94.3399C66.6231 94.386 66.3716 94.6294 66.3716 94.6294" stroke="#FF547C" stroke-width="0.790027" stroke-linecap="round"/>
<path opacity="0.82" d="M117.268 79.4765C117.268 79.4765 116.812 79.8963 116.358 79.9069C115.988 79.9156 115.804 79.6573 115.432 79.6578C115.058 79.6582 114.594 79.9144 114.594 79.9144" stroke="#FF547C" stroke-width="0.790027" stroke-linecap="round"/>
<path opacity="0.81" d="M133.699 54.2991C133.699 54.2991 134.207 54.5513 134.278 54.7805C134.335 54.967 134.083 55.046 134.132 55.2329C134.181 55.4217 134.515 55.6691 134.515 55.6691" stroke="#FF547C" stroke-width="0.790027" stroke-linecap="round"/>
<path opacity="0.9" d="M101.068 53.5565C101.068 53.5565 101.412 53.0829 101.847 53.0225C102.202 52.9734 102.439 53.214 102.796 53.1729C103.158 53.1314 103.547 52.8222 103.547 52.8222" stroke="#FF547C" stroke-width="0.790027" stroke-linecap="round"/>
<path opacity="0.88" d="M125.097 101.274C125.097 101.274 124.328 100.798 124.279 100.42C124.238 100.112 124.68 100.02 124.654 99.7124C124.628 99.4018 124.146 98.9575 124.146 98.9575" stroke="#FF547C" stroke-width="0.790027" stroke-linecap="round"/>
<path opacity="0.98" d="M111.824 95.7756C111.824 95.7756 111.49 96.0476 111.179 96.0436C110.926 96.0404 110.813 95.8616 110.559 95.8528C110.303 95.8439 109.973 96.0052 109.973 96.0052" stroke="#FF547C" stroke-width="0.790027" stroke-linecap="round"/>
<path opacity="0.95" d="M66.3153 81.1509C66.3153 81.1509 66.391 81.6535 66.1201 81.8433C65.8998 81.9977 65.5664 81.8746 65.338 82.0235C65.1073 82.1739 65.039 82.5548 65.039 82.5548" stroke="#FF547C" stroke-width="0.790027" stroke-linecap="round"/>
<path opacity="0.86" d="M120.491 85.1969C120.491 85.1969 121.373 85.3366 121.676 85.6347C121.922 85.8772 121.674 86.1009 121.909 86.3478C122.147 86.5971 122.803 86.806 122.803 86.806" stroke="#FF547C" stroke-width="0.790027" stroke-linecap="round"/>
<path opacity="0.99" d="M115.832 81.6869C115.832 81.6869 116.554 81.8361 116.78 82.0915C116.964 82.2993 116.739 82.472 116.914 82.683C117.091 82.8961 117.618 83.0927 117.618 83.0927" stroke="#FF547C" stroke-width="0.790027" stroke-linecap="round"/>
<path opacity="0.72" d="M74.7779 69.3981C74.7779 69.3981 75.2118 69.2854 75.4703 69.3712C75.6807 69.441 75.674 69.6037 75.8819 69.6778C76.0919 69.7527 76.4605 69.7212 76.4605 69.7212" stroke="#FF547C" stroke-width="0.790027" stroke-linecap="round"/>
<path opacity="0.98" d="M137.045 66.2462C137.045 66.2462 137.542 66.6401 137.522 66.9135C137.505 67.136 137.165 67.1705 137.138 67.3916C137.111 67.615 137.4 67.9659 137.4 67.9659" stroke="#FF547C" stroke-width="0.790027" stroke-linecap="round"/>
<path opacity="0.92" d="M123.13 53.5324C123.13 53.5324 122.954 53.2818 123.029 53.1479C123.089 53.0389 123.281 53.0589 123.346 52.9518C123.413 52.8435 123.339 52.6371 123.339 52.6371" stroke="#FF547C" stroke-width="0.790027" stroke-linecap="round"/>
<path opacity="0.76" d="M89.1398 59.4514C89.1398 59.4514 89.0578 59.7298 88.8534 59.7996C88.6871 59.8564 88.5248 59.7511 88.3552 59.804C88.1839 59.8575 88.0489 60.0536 88.0489 60.0536" stroke="#FF547C" stroke-width="0.790027" stroke-linecap="round"/>
<path opacity="0.79" d="M126.542 92.0566C126.542 92.0566 126.655 91.7614 126.882 91.6946C127.068 91.6402 127.235 91.7594 127.424 91.7094C127.614 91.6588 127.777 91.4538 127.777 91.4538" stroke="#FF547C" stroke-width="0.790027" stroke-linecap="round"/>
<path opacity="0.84" d="M100.96 92.9427C100.96 92.9427 101.546 93.2838 101.597 93.5649C101.639 93.7937 101.316 93.8703 101.347 94.099C101.378 94.33 101.751 94.6525 101.751 94.6525" stroke="#FF547C" stroke-width="0.790027" stroke-linecap="round"/>
<path opacity="0.72" d="M77.4857 94.4996C77.4857 94.4996 77.4169 93.9504 77.7189 93.747C77.9646 93.5815 78.3264 93.7202 78.5807 93.5608C78.8377 93.3998 78.9232 92.9853 78.9232 92.9853" stroke="#FF547C" stroke-width="0.790027" stroke-linecap="round"/>
<path opacity="0.74" d="M147.1 75.7671C147.1 75.7671 146.576 75.3251 146.613 75.0279C146.644 74.7861 147.02 74.7575 147.062 74.5174C147.104 74.275 146.806 73.8853 146.806 73.8853" stroke="#FF547C" stroke-width="0.790027" stroke-linecap="round"/>
<path opacity="0.88" d="M119.599 84.0528C119.599 84.0528 118.991 83.5405 119.035 83.1961C119.07 82.9159 119.506 82.8827 119.555 82.6045C119.604 82.3235 119.258 81.8719 119.258 81.8719" stroke="#FF547C" stroke-width="0.790027" stroke-linecap="round"/>
<path opacity="0.75" d="M71.4898 66.8994C71.4898 66.8994 70.7356 67.0309 70.3251 66.8602C69.9911 66.7212 70.0437 66.4572 69.715 66.3115C69.383 66.1644 68.7586 66.1715 68.7586 66.1715" stroke="#FF547C" stroke-width="0.790027" stroke-linecap="round"/>
<path opacity="0.95" d="M129.053 52.1C129.053 52.1 128.423 52.0453 128.18 51.8476C127.982 51.6867 128.13 51.5139 127.939 51.3494C127.746 51.1832 127.266 51.0674 127.266 51.0674" stroke="#FF547C" stroke-width="0.790027" stroke-linecap="round"/>
<path opacity="0.75" d="M115.379 49.0333C115.379 49.0333 114.705 48.9668 114.45 48.7526C114.242 48.5783 114.406 48.3958 114.205 48.2177C114.003 48.0378 113.492 47.908 113.492 47.908" stroke="#FF547C" stroke-width="0.790027" stroke-linecap="round"/>
<path opacity="0.99" d="M89.0577 46.2079C89.0577 46.2079 89.2594 45.8866 89.5423 45.8365C89.7725 45.7957 89.9404 45.9493 90.1733 45.9138C90.4086 45.8779 90.6483 45.6643 90.6483 45.6643" stroke="#FF547C" stroke-width="0.790027" stroke-linecap="round"/>
</g>
<g opacity="0.6">
<path opacity="0.73" d="M178.968 67.0163C178.968 67.0163 179.644 67.2205 179.727 67.5196C179.795 67.763 179.448 67.9464 179.504 68.1928C179.561 68.4418 180.001 68.6897 180.001 68.6897" stroke="#FF547C" stroke-width="0.790027" stroke-linecap="round"/>
<path opacity="0.71" d="M167.868 77.9051C167.868 77.9051 167.772 78.2746 167.525 78.4204C167.324 78.539 167.126 78.4551 166.922 78.5698C166.715 78.6857 166.554 78.9684 166.554 78.9684" stroke="#FF547C" stroke-width="0.790027" stroke-linecap="round"/>
<path opacity="0.99" d="M119.339 90.7389C119.339 90.7389 119.298 91.1992 119.014 91.4042C118.783 91.571 118.511 91.491 118.274 91.6535C118.034 91.8176 117.89 92.1796 117.89 92.1796" stroke="#FF547C" stroke-width="0.790027" stroke-linecap="round"/>
<path opacity="0.82" d="M162.61 53.5393C162.61 53.5393 162.339 54.1737 161.883 54.3921C161.512 54.5698 161.207 54.392 160.83 54.5622C160.45 54.7341 160.096 55.206 160.096 55.206" stroke="#FF547C" stroke-width="0.790027" stroke-linecap="round"/>
<path opacity="0.81" d="M167.778 20.4866C167.778 20.4866 168.409 20.5102 168.585 20.7106C168.728 20.8736 168.508 21.0691 168.643 21.2364C168.78 21.4055 169.232 21.5037 169.232 21.5037" stroke="#FF547C" stroke-width="0.790027" stroke-linecap="round"/>
<path opacity="0.9" d="M134.325 34.6445C134.325 34.6445 134.458 34.0066 134.872 33.7463C135.209 33.5345 135.559 33.6703 135.904 33.465C136.252 33.2577 136.505 32.7661 136.505 32.7661" stroke="#FF547C" stroke-width="0.790027" stroke-linecap="round"/>
<path opacity="0.88" d="M180.517 72.0801C180.517 72.0801 179.519 71.9485 179.296 71.587C179.115 71.293 179.521 70.9975 179.354 70.6974C179.186 70.3942 178.494 70.1636 178.494 70.1636" stroke="#FF547C" stroke-width="0.790027" stroke-linecap="round"/>
<path opacity="0.98" d="M164.535 72.568C164.535 72.568 164.321 72.9965 164.003 73.1346C163.745 73.2469 163.549 73.117 163.287 73.224C163.023 73.3322 162.761 73.647 162.761 73.647" stroke="#FF547C" stroke-width="0.790027" stroke-linecap="round"/>
<path opacity="0.95" d="M111.673 78.5309C111.673 78.5309 111.98 79.0063 111.792 79.3227C111.638 79.5801 111.244 79.6075 111.08 79.863C110.915 80.121 111.02 80.5388 111.02 80.5388" stroke="#FF547C" stroke-width="0.790027" stroke-linecap="round"/>
<path opacity="0.86" d="M168.494 57.8714C168.494 57.8714 169.453 57.6099 169.897 57.774C170.257 57.9076 170.108 58.248 170.46 58.3908C170.815 58.535 171.576 58.4471 171.576 58.4471" stroke="#FF547C" stroke-width="0.790027" stroke-linecap="round"/>
<path opacity="0.99" d="M162.163 56.4369C162.163 56.4369 162.963 56.2586 163.309 56.4144C163.591 56.5411 163.441 56.8194 163.715 56.9534C163.992 57.0888 164.617 57.0473 164.617 57.0473" stroke="#FF547C" stroke-width="0.790027" stroke-linecap="round"/>
<path opacity="0.72" d="M114.888 62.736C114.888 62.736 115.276 62.4233 115.578 62.3923C115.823 62.367 115.891 62.535 116.136 62.5153C116.383 62.4953 116.743 62.2948 116.743 62.2948" stroke="#FF547C" stroke-width="0.790027" stroke-linecap="round"/>
<path opacity="0.98" d="M176.63 31.0763C176.63 31.0763 177.315 31.2489 177.419 31.5355C177.504 31.7688 177.175 31.9595 177.248 32.1961C177.323 32.4352 177.777 32.659 177.777 32.659" stroke="#FF547C" stroke-width="0.790027" stroke-linecap="round"/>
<path opacity="0.92" d="M156.701 24.5392C156.701 24.5392 156.409 24.3653 156.423 24.1953C156.435 24.057 156.638 23.99 156.656 23.8512C156.674 23.7109 156.504 23.5353 156.504 23.5353" stroke="#FF547C" stroke-width="0.790027" stroke-linecap="round"/>
<path opacity="0.76" d="M124.915 46.0752C124.915 46.0752 124.959 46.3952 124.784 46.5595C124.641 46.6931 124.428 46.6604 124.28 46.7916C124.131 46.9241 124.083 47.1849 124.083 47.1849" stroke="#FF547C" stroke-width="0.790027" stroke-linecap="round"/>
<path opacity="0.79" d="M177.772 62.0684C177.772 62.0684 177.751 61.7177 177.952 61.5458C178.115 61.4059 178.34 61.4503 178.508 61.3133C178.678 61.175 178.75 60.8925 178.75 60.8925" stroke="#FF547C" stroke-width="0.790027" stroke-linecap="round"/>
<path opacity="0.84" d="M152.217 74.662C152.217 74.662 152.967 74.7402 153.148 75.0023C153.294 75.2155 153.002 75.4408 153.137 75.6587C153.275 75.8789 153.8 76.0357 153.8 76.0357" stroke="#FF547C" stroke-width="0.790027" stroke-linecap="round"/>
<path opacity="0.72" d="M129.109 86.9656C129.109 86.9656 128.788 86.4398 129.001 86.0954C129.175 85.8151 129.606 85.7905 129.791 85.5125C129.978 85.2317 129.875 84.7719 129.875 84.7719" stroke="#FF547C" stroke-width="0.790027" stroke-linecap="round"/>
<path opacity="0.74" d="M191.184 36.1407C191.184 36.1407 190.451 35.9316 190.353 35.6129C190.274 35.3535 190.642 35.1527 190.575 34.8899C190.507 34.6245 190.026 34.3654 190.026 34.3654" stroke="#FF547C" stroke-width="0.790027" stroke-linecap="round"/>
<path opacity="0.88" d="M167.066 57.1165C167.066 57.1165 166.216 56.8741 166.102 56.5048C166.01 56.2043 166.437 55.9715 166.359 55.667C166.281 55.3594 165.724 55.0591 165.724 55.0591" stroke="#FF547C" stroke-width="0.790027" stroke-linecap="round"/>
<path opacity="0.75" d="M110.409 61.6983C110.409 61.6983 109.703 62.1765 109.209 62.1908C108.806 62.2025 108.739 61.9105 108.339 61.9129C107.935 61.9154 107.305 62.208 107.305 62.208" stroke="#FF547C" stroke-width="0.790027" stroke-linecap="round"/>
<path opacity="0.95" d="M162.057 20.3759C162.057 20.3759 161.392 20.6083 161.055 20.5189C160.781 20.4461 160.853 20.2029 160.583 20.1233C160.311 20.0429 159.772 20.1447 159.772 20.1447" stroke="#FF547C" stroke-width="0.790027" stroke-linecap="round"/>
<path opacity="0.75" d="M146.779 23.5095C146.779 23.5095 146.064 23.7501 145.707 23.6495C145.417 23.5676 145.5 23.3074 145.215 23.2183C144.927 23.1283 144.349 23.2303 144.349 23.2303" stroke="#FF547C" stroke-width="0.790027" stroke-linecap="round"/>
<path opacity="0.99" d="M118.78 32.6788C118.78 32.6788 118.838 32.2606 119.102 32.0805C119.317 31.9339 119.557 32.013 119.777 31.8705C120 31.7265 120.145 31.4002 120.145 31.4002" stroke="#FF547C" stroke-width="0.790027" stroke-linecap="round"/>
</g>
<circle cx="45.9178" cy="22.1912" r="5.91781" fill="#FF5DA1"/>
<circle cx="176.11" cy="88.7655" r="5.91781" fill="#FF5DA1"/>
<path d="M193.806 96.8906V88.1634H199.482V89.4886H195.387V91.858H199.188V93.1832H195.387V95.5653H199.516V96.8906H193.806ZM202.54 93.0554V96.8906H200.997V90.3452H202.471V91.4574H202.548C202.699 91.0909 202.939 90.7997 203.268 90.5838C203.601 90.3679 204.011 90.2599 204.5 90.2599C204.952 90.2599 205.345 90.3565 205.68 90.5497C206.018 90.7429 206.28 91.0227 206.464 91.3892C206.652 91.7557 206.744 92.2003 206.741 92.723V96.8906H205.199V92.9616C205.199 92.5241 205.085 92.1818 204.858 91.9347C204.633 91.6875 204.322 91.5639 203.925 91.5639C203.655 91.5639 203.415 91.6236 203.204 91.7429C202.997 91.8594 202.834 92.0284 202.714 92.25C202.598 92.4716 202.54 92.7401 202.54 93.0554ZM210.708 97.0057C210.194 97.0057 209.734 96.8736 209.328 96.6094C208.922 96.3452 208.601 95.9616 208.365 95.4588C208.129 94.956 208.011 94.3452 208.011 93.6264C208.011 92.8991 208.13 92.2855 208.369 91.7855C208.61 91.2827 208.936 90.9034 209.345 90.6477C209.754 90.3892 210.21 90.2599 210.713 90.2599C211.096 90.2599 211.412 90.3253 211.659 90.456C211.906 90.5838 212.102 90.7386 212.247 90.9205C212.392 91.0994 212.504 91.2685 212.583 91.4276H212.647V88.1634H214.194V96.8906H212.677V95.8594H212.583C212.504 96.0185 212.389 96.1875 212.238 96.3665C212.088 96.5426 211.889 96.6932 211.642 96.8182C211.395 96.9432 211.083 97.0057 210.708 97.0057ZM211.139 95.7401C211.466 95.7401 211.744 95.652 211.974 95.4759C212.204 95.2969 212.379 95.0483 212.498 94.7301C212.618 94.4119 212.677 94.0412 212.677 93.6179C212.677 93.1946 212.618 92.8267 212.498 92.5142C212.382 92.2017 212.208 91.9588 211.978 91.7855C211.751 91.6122 211.471 91.5256 211.139 91.5256C210.795 91.5256 210.508 91.6151 210.278 91.794C210.048 91.973 209.875 92.2202 209.758 92.5355C209.642 92.8509 209.583 93.2116 209.583 93.6179C209.583 94.027 209.642 94.392 209.758 94.7131C209.877 95.0312 210.052 95.2827 210.282 95.4673C210.515 95.6491 210.801 95.7401 211.139 95.7401Z" fill="black"/>
<path d="M5.65838 13.0703C5.61861 12.6982 5.45099 12.4084 5.15554 12.201C4.86293 11.9936 4.48224 11.8899 4.01349 11.8899C3.68395 11.8899 3.40128 11.9396 3.16548 12.0391C2.92969 12.1385 2.74929 12.2734 2.62429 12.4439C2.49929 12.6143 2.43537 12.8089 2.43253 13.0277C2.43253 13.2095 2.47372 13.3672 2.55611 13.5007C2.64134 13.6342 2.75639 13.7479 2.90128 13.8416C3.04616 13.9325 3.20668 14.0092 3.38281 14.0717C3.55895 14.1342 3.73651 14.1868 3.91548 14.2294L4.73366 14.4339C5.06321 14.5107 5.37997 14.6143 5.68395 14.745C5.99077 14.8757 6.26491 15.0405 6.50639 15.2393C6.75071 15.4382 6.94389 15.6783 7.08594 15.9595C7.22798 16.2408 7.29901 16.5703 7.29901 16.9482C7.29901 17.4595 7.16832 17.9098 6.90696 18.299C6.6456 18.6854 6.26776 18.9879 5.77344 19.2067C5.28196 19.4226 4.68679 19.5305 3.98793 19.5305C3.30895 19.5305 2.71946 19.4254 2.21946 19.2152C1.7223 19.005 1.3331 18.6982 1.05185 18.2947C0.773438 17.8913 0.622869 17.3999 0.600142 16.8203H2.15554C2.17827 17.1243 2.27202 17.3771 2.43679 17.5788C2.60156 17.7805 2.81605 17.9311 3.08026 18.0305C3.3473 18.13 3.6456 18.1797 3.97514 18.1797C4.31889 18.1797 4.62003 18.1286 4.87855 18.0263C5.13991 17.9212 5.34446 17.7763 5.49219 17.5916C5.63991 17.4041 5.7152 17.1854 5.71804 16.9354C5.7152 16.7081 5.64844 16.5206 5.51776 16.3729C5.38707 16.2223 5.20384 16.0973 4.96804 15.9979C4.73509 15.8956 4.46236 15.8047 4.14986 15.7251L3.15696 15.4695C2.43821 15.2848 1.87003 15.005 1.45241 14.63C1.03764 14.2521 0.830256 13.7507 0.830256 13.1257C0.830256 12.6115 0.96946 12.1612 1.24787 11.7749C1.52912 11.3885 1.91122 11.0888 2.39418 10.8757C2.87713 10.6598 3.42401 10.5518 4.0348 10.5518C4.65412 10.5518 5.19673 10.6598 5.66264 10.8757C6.13139 11.0888 6.49929 11.3857 6.76634 11.7663C7.03338 12.1442 7.17116 12.5788 7.17969 13.0703H5.65838ZM11.8787 12.853V14.0462H8.11595V12.853H11.8787ZM9.04493 11.2848H10.5875V17.4297C10.5875 17.6371 10.6188 17.7962 10.6813 17.907C10.7466 18.0149 10.8319 18.0888 10.937 18.1286C11.0421 18.1683 11.1586 18.1882 11.2864 18.1882C11.383 18.1882 11.4711 18.1811 11.5506 18.1669C11.633 18.1527 11.6955 18.1399 11.7381 18.1286L11.9981 19.3345C11.9157 19.3629 11.7978 19.3942 11.6444 19.4283C11.4938 19.4624 11.3091 19.4822 11.0904 19.4879C10.704 19.4993 10.356 19.4411 10.0463 19.3132C9.73669 19.1825 9.49095 18.9808 9.30913 18.7081C9.13016 18.4354 9.04209 18.0945 9.04493 17.6854V11.2848ZM15.0224 19.5305C14.6076 19.5305 14.234 19.4567 13.9016 19.3089C13.5721 19.1584 13.3107 18.9368 13.1176 18.6442C12.9272 18.3516 12.832 17.9908 12.832 17.5618C12.832 17.1925 12.9002 16.8871 13.0366 16.6456C13.173 16.4041 13.359 16.2109 13.5948 16.0661C13.8306 15.9212 14.0962 15.8118 14.3917 15.7379C14.69 15.6612 14.9982 15.6058 15.3164 15.5717C15.6999 15.532 16.011 15.4964 16.2497 15.4652C16.4883 15.4311 16.6616 15.38 16.7695 15.3118C16.8803 15.2408 16.9357 15.1314 16.9357 14.9837V14.9581C16.9357 14.6371 16.8406 14.3885 16.6502 14.2124C16.4599 14.0362 16.1857 13.9482 15.8278 13.9482C15.4499 13.9482 15.1502 14.0305 14.9286 14.1953C14.7099 14.3601 14.5622 14.5547 14.4855 14.7791L13.0451 14.5746C13.1587 14.1768 13.3462 13.8445 13.6076 13.5774C13.869 13.3075 14.1886 13.1058 14.5664 12.9723C14.9443 12.8359 15.3619 12.7678 15.8193 12.7678C16.1346 12.7678 16.4485 12.8047 16.761 12.8786C17.0735 12.9524 17.359 13.0746 17.6176 13.245C17.8761 13.4126 18.0835 13.6413 18.2397 13.9311C18.3988 14.2209 18.4784 14.5831 18.4784 15.0178V19.3984H16.9954V18.4993H16.9443C16.8505 18.6811 16.7184 18.8516 16.548 19.0107C16.3803 19.1669 16.1687 19.2933 15.913 19.3899C15.6602 19.4837 15.3633 19.5305 15.0224 19.5305ZM15.423 18.397C15.7326 18.397 16.0011 18.3359 16.2284 18.2138C16.4556 18.0888 16.6303 17.924 16.7525 17.7195C16.8775 17.5149 16.94 17.2919 16.94 17.0504V16.2791C16.8917 16.3189 16.8093 16.3558 16.6928 16.3899C16.5792 16.424 16.4514 16.4538 16.3093 16.4794C16.1673 16.505 16.0266 16.5277 15.8874 16.5476C15.7482 16.5675 15.6275 16.5845 15.5252 16.5987C15.2951 16.63 15.0891 16.6811 14.9073 16.7521C14.7255 16.8232 14.582 16.9226 14.4769 17.0504C14.3718 17.1754 14.3193 17.3374 14.3193 17.5362C14.3193 17.8203 14.423 18.0348 14.6303 18.1797C14.8377 18.3246 15.1019 18.397 15.423 18.397ZM19.9995 19.3984V12.853H21.4952V13.9439H21.5634C21.6827 13.5661 21.8873 13.2749 22.177 13.0703C22.4697 12.8629 22.8035 12.7592 23.1785 12.7592C23.2637 12.7592 23.3589 12.7635 23.464 12.772C23.5719 12.7777 23.6614 12.7876 23.7324 12.8018V14.2209C23.6671 14.1982 23.5634 14.1783 23.4214 14.1612C23.2822 14.1413 23.1472 14.1314 23.0165 14.1314C22.7353 14.1314 22.4824 14.1925 22.258 14.3146C22.0364 14.4339 21.8617 14.6001 21.7339 14.8132C21.606 15.0263 21.5421 15.272 21.5421 15.5504V19.3984H19.9995ZM28.3473 12.853V14.0462H24.5845V12.853H28.3473ZM25.5135 11.2848H27.0561V17.4297C27.0561 17.6371 27.0874 17.7962 27.1499 17.907C27.2152 18.0149 27.3005 18.0888 27.4056 18.1286C27.5107 18.1683 27.6272 18.1882 27.755 18.1882C27.8516 18.1882 27.9397 18.1811 28.0192 18.1669C28.1016 18.1527 28.1641 18.1399 28.2067 18.1286L28.4666 19.3345C28.3843 19.3629 28.2664 19.3942 28.113 19.4283C27.9624 19.4624 27.7777 19.4822 27.559 19.4879C27.1726 19.4993 26.8246 19.4411 26.5149 19.3132C26.2053 19.1825 25.9595 18.9808 25.7777 18.7081C25.5987 18.4354 25.5107 18.0945 25.5135 17.6854V11.2848Z" fill="black"/>
<path d="M58 24.1523C57.4477 24.1523 57 24.6001 57 25.1523C57 25.7046 57.4477 26.1523 58 26.1523L58 24.1523ZM171.918 25.1524L161.918 19.3789L161.918 30.9259L171.918 25.1524ZM58 26.1523L162.918 26.1524L162.918 24.1524L58 24.1523L58 26.1523Z" fill="#794CFF"/>
<path d="M58 80.3711C57.4477 80.3711 57 80.8188 57 81.3711C57 81.9234 57.4477 82.3711 58 82.3711L58 80.3711ZM171.918 81.3711L161.918 75.5976L161.918 87.1446L171.918 81.3711ZM58 82.3711L162.918 82.3711L162.918 80.3711L58 80.3711L58 82.3711Z" fill="#794CFF"/>
<path d="M171.917 52.2617C172.47 52.2617 172.917 52.7094 172.917 53.2617C172.917 53.814 172.47 54.2617 171.917 54.2617L171.917 52.2617ZM57.9997 53.2617L67.9997 47.4882L67.9997 59.0352L57.9997 53.2617ZM171.917 54.2617L66.9997 54.2617L66.9997 52.2617L171.917 52.2617L171.917 54.2617Z" fill="#794CFF"/>
<path d="M173.246 30.017C173.256 29.4648 172.816 29.0096 172.264 29.0001C171.711 28.9907 171.256 29.4307 171.247 29.983L173.246 30.017ZM171.917 49.3012L177.861 39.401L166.315 39.2042L171.917 49.3012ZM171.247 29.983L171.071 40.2854L173.071 40.3195L173.246 30.017L171.247 29.983Z" fill="#794CFF"/>
<path d="M59 57.6992C59 57.1469 58.5523 56.6992 58 56.6992C57.4477 56.6992 57 57.1469 57 57.6992L59 57.6992ZM58 78.4115L63.7735 68.4115L52.2265 68.4115L58 78.4115ZM57 57.6992L57 69.4115L59 69.4115L59 57.6992L57 57.6992Z" fill="#794CFF"/>
</svg>
