<svg width="36" height="36" viewBox="0 0 36 36" fill="none" xmlns="http://www.w3.org/2000/svg">
<rect x="0.5" y="0.5" width="35" height="35" rx="17.5" stroke="#C6CAD1"/>
<path d="M24.2887 22.961C24.4649 23.1371 24.5638 23.376 24.5638 23.6251C24.5638 23.8741 24.4649 24.113 24.2887 24.2891C24.1126 24.4652 23.8737 24.5642 23.6247 24.5642C23.3756 24.5642 23.1367 24.4652 22.9606 24.2891L18.0005 19.3274L13.0387 24.2876C12.8626 24.4637 12.6237 24.5626 12.3747 24.5626C12.1256 24.5626 11.8867 24.4637 11.7106 24.2876C11.5345 24.1114 11.4355 23.8726 11.4355 23.6235C11.4355 23.3744 11.5345 23.1356 11.7106 22.9594L16.6723 17.9993L11.7122 13.0376C11.5361 12.8614 11.4371 12.6226 11.4371 12.3735C11.4371 12.1244 11.5361 11.8856 11.7122 11.7094C11.8883 11.5333 12.1272 11.4344 12.3762 11.4344C12.6253 11.4344 12.8642 11.5333 13.0403 11.7094L18.0005 16.6712L22.9622 11.7087C23.1383 11.5325 23.3772 11.4336 23.6262 11.4336C23.8753 11.4336 24.1142 11.5325 24.2903 11.7087C24.4664 11.8848 24.5654 12.1236 24.5654 12.3727C24.5654 12.6218 24.4664 12.8607 24.2903 13.0368L19.3286 17.9993L24.2887 22.961Z" fill="#1E242C"/>
</svg>
