<svg width="200" height="201" viewBox="0 0 200 201" fill="none" xmlns="http://www.w3.org/2000/svg">
<rect width="200" height="200" transform="translate(0 0.121826)" fill="white"/>
<path fill-rule="evenodd" clip-rule="evenodd" d="M46.0751 87.6065C47.538 86.343 47.6997 84.1328 46.4363 82.6699C45.1728 81.207 42.9627 81.0453 41.4997 82.3087L29.7399 92.4649C27.6596 94.2615 27.5799 97.4597 29.5683 99.3577L41.3707 110.624C42.769 111.958 44.9845 111.907 46.3191 110.509C47.6538 109.11 47.6023 106.895 46.2041 105.56L40.405 100.025H64.6083C66.5413 100.025 68.1083 98.4577 68.1083 96.5247C68.1083 94.5917 66.5413 93.0247 64.6083 93.0247H39.8013L46.0751 87.6065Z" fill="#FF003C"/>
<path d="M78.4889 41.2166C78.4889 34.3281 85.2906 29.5024 91.7924 31.7781L141.195 49.0691C145.206 50.4729 147.892 54.2582 147.892 58.5077V133.496C147.892 137.691 145.273 141.44 141.334 142.884L91.9314 160.999C85.4053 163.392 78.4889 158.561 78.4889 151.61V41.2166Z" fill="#C6CAD1"/>
<path d="M53.0411 64.715V57.9426C53.0411 52.4198 57.5183 47.9426 63.0411 47.9426H102.034C107.557 47.9426 112.034 52.4198 112.034 57.9426V132.793C112.034 138.316 107.557 142.793 102.034 142.793H63.0411C57.5183 142.793 53.0411 138.316 53.0411 132.793V126.021" stroke="#C6CAD1" stroke-width="9.25373" stroke-linecap="round"/>
<rect x="90.056" y="83.801" width="10.4104" height="21.9776" rx="5.20522" fill="#EDEEF0"/>
<path d="M127.661 118.935C130.741 113.602 138.439 113.602 141.518 118.935L160.218 151.325C163.297 156.659 159.448 163.325 153.29 163.325H115.889C109.731 163.325 105.882 156.659 108.961 151.325L127.661 118.935Z" fill="#FF003C"/>
<path d="M135.752 127.756C137.148 127.756 138.27 128.904 138.238 130.3L137.911 144.648C137.884 145.824 136.923 146.763 135.747 146.763C134.57 146.763 133.609 145.823 133.583 144.647L133.266 130.298C133.235 128.903 134.357 127.756 135.752 127.756ZM135.746 154.965C134.949 154.965 134.265 154.685 133.696 154.124C133.135 153.563 132.855 152.88 132.855 152.073C132.855 151.285 133.135 150.61 133.696 150.049C134.265 149.488 134.949 149.208 135.746 149.208C136.526 149.208 137.201 149.488 137.771 150.049C138.349 150.61 138.638 151.285 138.638 152.073C138.638 152.608 138.502 153.094 138.231 153.532C137.968 153.971 137.617 154.321 137.179 154.584C136.75 154.838 136.272 154.965 135.746 154.965Z" fill="white"/>
</svg>
